<?xml version="1.0" encoding="utf-8"?>
<!-- Generator: Adobe Illustrator 23.0.0, SVG Export Plug-In . SVG Version: 6.00 Build 0)  -->
<svg version="1.1" id="Capa_1" xmlns="http://www.w3.org/2000/svg" xmlns:xlink="http://www.w3.org/1999/xlink" x="0px" y="0px"
	 viewBox="0 0 113.6 119.6" style="enable-background:new 0 0 113.6 119.6;" xml:space="preserve">
<style type="text/css">
	.st0{display:none;fill:#138C3D;}
	.st1{fill:#138C3D;stroke:#138C3D;strokeMiterlimit:10;}
	.st2{fill:#138C3D;}
</style>
<title>Coadyuvante</title>
<path class="st0" d="M112.5,105.6c-0.9-1.9-1.9-3.7-3.1-5.5C97.8,81.6,86.1,63.1,74.4,44.7c-1.6-2.4-2.5-5.3-2.4-8.3
	C72.1,29,72,21.4,72,14c0-0.6,0-1.2,0-1.8c-0.1-1.1,0.4-1.7,1.6-1.7c1.1,0.1,2.2,0.1,3.3,0c2.1-0.1,3.9-1.4,4.6-3.4
	C83.1,3.5,79.8,0,76.2,0C63.3,0.1,50.5,0,37.6,0.1c-0.8,0-1.5,0.1-2.2,0.3c-2.4,0.8-3.9,3.2-3.6,5.7c0.4,2.4,2.4,4.2,4.8,4.4
	c1.5,0.1,3,0,4.9,0c0.1,1.5,0.1,2.5,0.1,3.5c0,7.9-0.1,15.8,0,23.7c0,2.3-0.6,4.5-1.8,6.4c-12,18.9-24,37.8-35.9,56.7
	c-1.4,2.1-2.5,4.4-3.3,6.8c-1.6,4.9,0.7,9.5,5.6,10.9c2.3,0.7,4.8,1,7.2,1c29.3,0.1,58.5,0.1,87.8,0c1.4,0,2.8-0.1,4.3-0.4
	C112.4,117.8,115.4,112.1,112.5,105.6z M96.6,109H16.9c-1.7,0-3.2-1.4-3.2-3.1c0-0.6,0.2-1.2,0.5-1.7l37.1-58.9c0.7-1.5,1-3.2,1-4.9
	c-0.1-8.8,0-17.6,0-26.5v-3.1h9c0.1,1.1,0.2,2.1,0.2,3.1c0,9.1,0,18.2,0,27.2c0,1.9,0.5,3.8,1.5,5.5c6.4,10,12.7,20,19,30
	c0.4,0.7,0.8,1.4,1.2,2.1c0,0,0,0.1,0,0.1l16,25.4c1,1.5,0.6,3.4-0.9,4.4C97.8,108.8,97.2,109,96.6,109z"/>
<g>
	<path class="st1" d="M42.2,0c8.2,0,16.3,0,24.5,0c0,0.3,0.1,0.7,0.1,1c0,1.9,0.1,3.7,0,5.6c-0.1,1.6,0.5,2.7,1.7,3.9
		c4.8,4.3,9.5,8.8,14.2,13.2c0.4,0.4,0.7,1,0.7,1.5c0,11.4,0,22.9,0,34.3c0,0.4-0.1,0.8-0.2,1.2c-0.9,1.7-1.7,3.4-2.7,5.1
		c-0.9,1.5-1.2,3-1.2,4.7c0.1,5.4,0.2,10.7,0,16.1c-0.1,3,0.7,5.6,2.3,8c1.5,2.2,2.1,4.5,2,7.2c-0.2,3.3,0,6.6,0,9.9
		c0,4.8-3.5,8.1-8.7,8.1c-13.4,0-26.7,0-40.1,0c-5.5,0-8.9-3.2-8.9-8.4c0-3.7,0.1-7.5,0-11.2c0-1.4,0.4-2.7,1.1-3.9
		c1-1.7,1.9-3.4,2.8-5.2c0.2-0.5,0.3-1,0.3-1.5c0-6.9,0.1-13.8-0.1-20.6c0-1.4-0.9-2.9-1.7-4.2c-1.8-2.8-2.5-5.7-2.4-8.9
		c0.2-10.1,0.1-20.1,0-30.2c0-0.8,0.3-1.4,0.9-2c4.9-4.6,9.8-9.2,14.7-13.7c0.7-0.6,1-1.3,1-2.2C42.2,5,42.2,2.6,42.2,0z M29.4,29.1
		c13.9,0,27.6,0,41.3,0c0,1.2,0,2.4,0,3.6c-13.8,0-27.5,0-41.2,0c0,2.6,0,5.1,0,7.7c13.8,0,27.5,0,41.2,0c0,1.3,0,2.5,0,3.9
		c-13.8,0-27.5,0-41.2,0c0,2.6,0,5.1,0,7.7c13.8,0,27.5,0,41.2,0c0,1.3,0,2.4,0,3.7c-13.8,0-27.5,0-41.2,0c-0.4,2,0,3.8,1,5.4
		c1,1.7,1.9,3.4,2.8,5.2c0.3,0.5,0.4,1.1,0.4,1.7c0,6.7,0,13.4,0.1,20c0,2-0.3,3.9-1.4,5.6c-0.9,1.4-1.6,2.9-2.3,4.3
		c-0.2,0.5-0.4,1.1-0.4,1.6c0,4,0,8,0,12.1c0,2.5,1.7,4.1,4.3,4.1c13.7,0,27.4,0,41.1,0c2.6,0,4.3-1.6,4.3-4c0-2.1-0.2-4.2,0-6.3
		c0.5-4.6-0.4-8.8-3.2-12.7c-0.2-0.3-0.4-0.6-0.5-1c-0.2-0.5-0.4-1.1-0.4-1.6c0-7.4,0-14.9,0-22.3c0-0.5,0.1-1,0.4-1.5
		c1-1.9,1.9-3.9,3.1-5.7c1-1.6,0.9-3.3,0.8-5.1c-1.3,0-2.5,0-3.7,0c0-1.2,0-2.4,0-3.6c1.3,0,2.5,0,3.7,0c0-2.6,0-5.2,0-7.7
		c-1.3,0-2.5,0-3.7,0c0-1.3,0-2.5,0-3.9c1.3,0,2.5,0,3.7,0c0-2.6,0-5.1,0-7.7c-1.3,0-2.5,0-3.7,0c0-1.3,0-2.4,0-3.6
		c1.3,0,2.5,0,3.8,0c0-1,0-1.9,0-2.8c0-0.3-0.3-0.5-0.5-0.7c-4.8-4.5-9.5-9-14.3-13.4c-0.4-0.3-1-0.6-1.5-0.6c-5.8,0-11.5,0-17.3,0
		c-0.5,0-1.2,0.3-1.6,0.6c-4.8,4.5-9.6,9-14.4,13.5c-0.2,0.2-0.4,0.6-0.4,0.9C29.4,27.2,29.4,28.1,29.4,29.1z M62.8,3.7
		c-5.6,0-11.1,0-16.6,0c0,1.3,0,2.6,0,3.8c5.6,0,11.1,0,16.6,0C62.8,6.2,62.8,5,62.8,3.7z"/>
	<path class="st2" d="M54.5,66.4c1.2,1.7,2.3,3.2,3.4,4.8c2.2,3.2,4.4,6.4,6.6,9.6c3.3,4.9,3.4,11.5-0.6,16.6
		c-4.4,5.7-12.3,6.6-17.7,1.2c-5-5-5.6-12.6-1.1-18.8c2.8-3.9,5.5-8,8.3-11.9C53.7,67.4,54.1,67,54.5,66.4z"/>
</g>
</svg>
