<svg id="Capa_1" data-name="Capa 1" xmlns="http://www.w3.org/2000/svg" viewBox="0 0 113.63 119.55"><defs><style>.cls-1{fill:#138c3d;}.cls-2{fill:none;stroke:#138c3d;stroke-miterlimit:10;stroke-width:8px;}</style></defs><title>Coadyuvante</title><path class="cls-1" d="M112.91,105.56a44.65,44.65,0,0,0-3.06-5.49Q92.33,72.36,74.73,44.71a14.16,14.16,0,0,1-2.38-8.27c.15-7.48.05-15,.05-22.45,0-.59,0-1.18,0-1.77-.05-1.15.43-1.73,1.63-1.7a25.49,25.49,0,0,0,3.27,0,5.25,5.25,0,0,0,4.63-3.37C83.46,3.52,80.15,0,76.55,0,63.7.12,50.83,0,38,.06a7.65,7.65,0,0,0-2.24.28A5.18,5.18,0,0,0,32.2,6.05,5.31,5.31,0,0,0,37,10.48c1.48.11,3,0,4.93,0C42,12,42,13,42,14c0,7.9-.1,15.81-.05,23.71a11.23,11.23,0,0,1-1.85,6.38q-18,28.29-35.86,56.68A31.31,31.31,0,0,0,.9,107.54c-1.65,4.94.67,9.47,5.62,10.93a26,26,0,0,0,7.19,1q43.89.1,87.78,0a24.28,24.28,0,0,0,4.25-.41C112.77,117.81,115.81,112.1,112.91,105.56ZM97,109H17.27a3.15,3.15,0,0,1-2.67-4.83L51.65,45.28a11.49,11.49,0,0,0,1-4.91c-.07-8.83,0-17.65,0-26.49v-3.1h9c.06,1.15.17,2.12.17,3.1,0,9.08,0,18.16,0,27.24a9.68,9.68,0,0,0,1.55,5.45c6.38,10,12.69,20,19,30,.44.7.85,1.42,1.24,2.06a.76.76,0,0,0,0,.11l16,25.37A3.15,3.15,0,0,1,97,109Z" transform="translate(-0.37 0)"/><path class="cls-2" d="M24.71,77.13s18.72-8.43,29.29-6,16.14,9.57,31.14,6" transform="translate(-0.37 0)"/></svg>