<?xml version="1.0" encoding="utf-8"?>
<!-- Generator: Adobe Illustrator 23.0.0, SVG Export Plug-In . SVG Version: 6.00 Build 0)  -->
<svg version="1.1" id="Capa_1" xmlns="http://www.w3.org/2000/svg" xmlns:xlink="http://www.w3.org/1999/xlink" x="0px" y="0px"
	 viewBox="0 0 113.6 119.6" style="enable-background:new 0 0 113.6 119.6;" xml:space="preserve">
<style type="text/css">
	.st0{display:none;fill:#138C3D;}
	.st1{fill:none;stroke:#138C3D;stroke-width:8;strokeMiterlimit:10;}
	.st2{fill:#138C3D;}
</style>
<title>Coadyuvante</title>
<path class="st0" d="M112.5,105.6c-0.9-1.9-1.9-3.7-3.1-5.5C97.8,81.6,86.1,63.1,74.4,44.7c-1.6-2.4-2.5-5.3-2.4-8.3
	C72.1,29,72,21.4,72,14c0-0.6,0-1.2,0-1.8c-0.1-1.1,0.4-1.7,1.6-1.7c1.1,0.1,2.2,0.1,3.3,0c2.1-0.1,3.9-1.4,4.6-3.4
	C83.1,3.5,79.8,0,76.2,0C63.3,0.1,50.5,0,37.6,0.1c-0.8,0-1.5,0.1-2.2,0.3c-2.4,0.8-3.9,3.2-3.6,5.7c0.4,2.4,2.4,4.2,4.8,4.4
	c1.5,0.1,3,0,4.9,0c0.1,1.5,0.1,2.5,0.1,3.5c0,7.9-0.1,15.8,0,23.7c0,2.3-0.6,4.5-1.8,6.4c-12,18.9-24,37.8-35.9,56.7
	c-1.4,2.1-2.5,4.4-3.3,6.8c-1.6,4.9,0.7,9.5,5.6,10.9c2.3,0.7,4.8,1,7.2,1c29.3,0.1,58.5,0.1,87.8,0c1.4,0,2.8-0.1,4.3-0.4
	C112.4,117.8,115.4,112.1,112.5,105.6z M96.6,109H16.9c-1.7,0-3.2-1.4-3.2-3.1c0-0.6,0.2-1.2,0.5-1.7l37.1-58.9c0.7-1.5,1-3.2,1-4.9
	c-0.1-8.8,0-17.6,0-26.5v-3.1h9c0.1,1.1,0.2,2.1,0.2,3.1c0,9.1,0,18.2,0,27.2c0,1.9,0.5,3.8,1.5,5.5c6.4,10,12.7,20,19,30
	c0.4,0.7,0.8,1.4,1.2,2.1c0,0,0,0.1,0,0.1l16,25.4c1,1.5,0.6,3.4-0.9,4.4C97.8,108.8,97.2,109,96.6,109z"/>
<path class="st1" d="M24.3,77.1c0,0,18.7-8.4,29.3-6S72,79.8,87,76.2"/>
<path class="st2" d="M2.2,113.7c0.8,1.6,2.3,2.8,4.4,3.4c2.2,0.6,4.5,1,6.8,0.9c29.1,0.1,58.7,0.1,87.8,0c1.3,0,2.7-0.1,4-0.4
	c2.9-0.5,5.2-1.9,6.3-4s1-4.7-0.2-7.4c-0.9-1.8-1.8-3.6-3-5.3C96.5,82.4,84.7,63.8,73.1,45.5c-1.8-2.7-2.7-5.9-2.6-9.1
	c0.1-5.3,0.1-10.8,0.1-16c0-2.1,0-4.3,0-6.4v-1.8c0-1,0.2-1.8,0.8-2.4C71.9,9.3,72.7,9,73.7,9c1.1,0.1,2.1,0.1,3.1,0
	c1.5-0.1,2.8-1,3.3-2.4c0.6-1.4,0.2-2.5-0.3-3.1c-0.8-1.2-2.2-2-3.7-2c-7.3,0.1-14.8,0.1-22,0c-5.5,0-11,0-16.5,0
	c-0.7,0-1.3,0.1-1.8,0.2c-1.7,0.5-2.8,2.2-2.5,4c0.3,1.7,1.7,3,3.4,3.2c0.9,0.1,1.8,0,2.9,0c0.6,0,1.2,0,1.9,0H43l0.1,1.4
	c0.1,1.6,0.1,2.6,0.1,3.6c0,3.2,0,6.3,0,9.5c0,4.7,0,9.5,0,14.2c0,2.6-0.7,5.1-2.1,7.2C29.1,63.6,17,82.7,5.1,101.6
	c-1.3,2-2.4,4.2-3.2,6.5C1.3,110.1,1.4,112,2.2,113.7z M13,103.4l37-58.8c0.6-1.3,0.9-2.7,0.8-4.2c0-5.9,0-11.9,0-17.7
	c0-2.9,0-5.9,0-8.8V9.3h11.9l0.1,1.4c0,0.4,0,0.8,0.1,1.2c0,0.7,0.1,1.3,0.1,2v27.2c0,1.7,0.4,3.3,1.3,4.6c6.4,10.1,12.8,20.2,19,30
	c0.3,0.4,0.5,0.9,0.8,1.3c0.2,0.3,0.3,0.5,0.5,0.8l0.3,0.4l0,0.1l15.7,25c0.7,1,0.9,2.2,0.7,3.5c-0.2,1.2-1,2.3-2,3
	c-0.8,0.5-1.6,0.8-2.5,0.8H16.9c0,0,0,0,0,0c-2.6,0-4.6-2.1-4.6-4.6C12.2,105,12.5,104.1,13,103.4z"/>
</svg>
