<?xml version="1.0" encoding="utf-8"?>
<!-- Generator: Adobe Illustrator 23.0.0, SVG Export Plug-In . SVG Version: 6.00 Build 0)  -->
<svg version="1.1" id="Capa_1" xmlns="http://www.w3.org/2000/svg" xmlns:xlink="http://www.w3.org/1999/xlink" x="0px" y="0px"
	 viewBox="0 0 153 153" style="enable-background:new 0 0 153 153;" xml:space="preserve">
<style type="text/css">
	.st0{fill:#138C3D;}
</style>
<g>
	<path class="st0" d="M102.38,99.6c-1.45,3.86-2.78,7.35-4.05,10.85c-0.53,1.46-1.36,2.32-3.05,2.25c-1.6-0.06-2.58-0.63-3-2.27
		c-0.62-2.44-0.87-4.74,0.5-7.09c1.06-1.83,1.77-3.86,2.69-5.93c-3.05-2.6-7.51-2.55-9.88-5.98c3.75,0.18,6.84,2.38,10.4,3.3
		c0.53-0.73,1.01-1.4,1.66-2.29c1.29,0.42,2.57,0.86,3.86,1.26c1.82,0.56,1.31,2.17,1.47,3.54c2.84,0.96,5.52,2.19,8.74,2.17
		c-2.65-4.01-13.55-8.36-26.26-10.67c-1.23-2.67-1.07-3.53,1.28-4.49c11.24-4.61,23.31-0.08,28.38,11.24
		c0.17,0.39,0.32,0.79,0.43,1.2c1.14,3.93-0.31,5.6-4.26,4.83c-1.99-0.39-3.96-0.88-5.94-1.31C104.4,99.99,103.46,99.82,102.38,99.6
		z"/>
	<path class="st0" d="M41.74,93.49c1.37,0,2.73,0,4.13,0c0.32,0.89,0.5,0.92,0.54,1.69l9.14-8.29c-0.12-1.03-5.47,0.04-7.77,0.38
		c-1.37,0.2-1.56,1.34-1.6,2.43c-0.06,1.62-1.02,1.15-2.46,1.2c-3.74,0.11-7.47,0.12-11.21,0.14c-0.27,0-0.54-0.26-0.92-0.45
		c0.28-1.6,1.66-1.97,2.75-2.31c3.76-1.16,7.54-2.34,11.4-3.12c3.65-0.74,7.39-1,11.1-1.43c3.07-0.36,3.37-0.67,3.53-3.73
		c0.08-1.49,0.18-2.99,0.32-4.48c0.3-3.14-0.39-4.04-3.61-4.27c-7.62-0.55-14.67,1.11-20.84,5.77c-3.52,2.66-6.74,5.63-8.65,9.74
		c-1.87,4.02-0.52,6.42,3.95,6.67C34.92,93.6,38.33,93.48,41.74,93.49z"/>
	<path class="st0" d="M82.67,87.65c-0.39-2.3-0.33-3.2-0.1-4.76L63.1,100.96c0.58,2.98,0.71,4.83,1.22,7.48
		c0.12,0.63,0.24,1.26,0.37,1.89c0.32,1.61,1.26,2.32,2.93,2.27c2.46-0.07,4.92-0.01,7.38-0.01c3.85,0,7.7,0.01,11.55-0.01
		c1.15-0.01,2.31-0.12,3.86-0.21c-0.09-1.15-2.3-8.33-3.67-10.85C84.19,96.24,83.36,91.69,82.67,87.65z"/>
	<g>
		<path class="st0" d="M50.88,111.19l0.73,2.29c0.31-0.05,0.62-0.09,0.94-0.12c2.44-0.23,4.89-0.46,7.32-0.76
			c0.59-0.07,1.15-0.38,1.98-0.67c-0.6-1.07-1.62-2.97-2.32-4.28l-1.7-2.95C56.12,106.31,53.6,108.65,50.88,111.19L50.88,111.19z"/>
		<path class="st0" d="M113.5,121.43c-1.61-1.45-3.66-2.71-5.74-3.31c-3.98-1.15-8.1-1.87-12.19-2.61
			c-9.1-1.66-18.31-1.81-27.48-1.21c-6.26,0.41-12.45,1.78-18.67,2.72c-0.9,0.14-1.82,0.28-2.95,0.46v0c0,0-2.17,0.51-3.16,0.74
			c-3.93,3.65-6.99,6.51-6.99,6.51c0.3,0.33,0.7,0.61,1.09,0.84c0.03-0.02,0.05-0.04,0.08-0.07c4.14,2.82,8.8,2.16,13.19,2.47
			c5.43,0.38,10.9,0.13,16.36,0.13c11.87,0,23.74,0.04,35.61-0.05c2.66-0.02,5.32-0.45,7.98-0.73c0.52-0.05,1.04-0.25,1.54-0.44
			C114.92,125.85,115.67,123.39,113.5,121.43z"/>
	</g>
	<path class="st0" d="M81.58,53.36c-1.47-0.17-3.12-0.53-4.78-0.52c-2.98,0.02-5.97,0.21-8.95,0.42c-2.04,0.14-2.46,0.63-2.78,2.76
		c-0.24,1.58-0.49,3.16-0.76,4.87c-0.63,0.15-1.23,0.43-1.81,0.4c-6.39-0.31-12.79-0.59-19.17-1.07c-2.21-0.17-4.41-0.76-6.54-1.39
		c-0.8-0.24-1.39-1.14-2.08-1.74c0.6-0.67,1.07-1.68,1.81-1.95c3.39-1.24,6.8-2.62,10.32-3.28c4.49-0.84,9.08-1.28,13.65-1.46
		c8.85-0.36,29.97-0.26,32.88-0.15l15.08-14.68c0,0-0.09-0.85-0.96-1.38c-1-0.61-2.06-1.14-3.09-1.7
		c-22.45-12.16-48.13-8.16-66.77,7.45c-3.21,2.69-6.25,5.53-8.45,9.16c-4.11,6.78-2.78,10.59,4.72,13.2
		c5.39,1.88,11.03,2.48,16.68,2.85c3.62,0.24,7.26,0.28,10.89,0.44c0.62,0.03,1.23,0.2,2.3,0.39c-0.35,4.38-0.63,8.52-0.97,13.24
		L82.2,60.96C82.04,57.67,82.42,55.35,81.58,53.36z"/>
	<path class="st0" d="M118.99,57.44c-4.66,2.86-9.66,2.93-14.96,3.41l-4.5,4.36c0.3-0.04,0.6-0.07,0.92-0.09
		c5.41-0.37,10.82-1.08,16.18-2c2.25-0.39,4.49-1.42,6.49-2.59c3.25-1.89,4.17-4.59,2.51-7.91c-1.35-2.7-3.06-5.23-4.85-8.01
		l-8.73,8.46C112.85,53.3,117.23,55.06,118.99,57.44z"/>
	<path class="st0" d="M76.71,0.55c-42.13,0-76.29,34.15-76.29,76.29s34.15,76.29,76.29,76.29S153,118.97,153,76.84
		S118.85,0.55,76.71,0.55z M11.1,67.73c4.58-26.95,19.8-45.4,45.8-53.92c22.17-7.26,42.59-2.55,61.4,11.52l0.08-0.08l2.78,2.38
		c0,0-94.48,90.43-95.08,90.97C15.96,111.46,8.11,85.37,11.1,67.73z M124.53,122.4c-25.8,27.11-65.49,25.55-88.62,6.15l-0.01,0.01
		l-4.05-3.47c0,0,30-27.35,48.52-44.29l46.75-46.04l0.1,0.12c0,0,0,0,0,0c0.56,0.6,1.11,1.22,1.64,1.86l0.02,0.02l0,0
		C146.29,57.48,149.92,95.73,124.53,122.4z"/>
</g>
</svg>
