<?xml version="1.0" encoding="utf-8"?>
<!-- Generator: Adobe Illustrator 23.0.0, SVG Export Plug-In . SVG Version: 6.00 Build 0)  -->
<svg version="1.1" id="Capa_1" xmlns="http://www.w3.org/2000/svg" xmlns:xlink="http://www.w3.org/1999/xlink" x="0px" y="0px"
	 viewBox="0 0 153.64 125.51" style="enable-background:new 0 0 153.64 125.51;" xml:space="preserve">
<style type="text/css">
	.st0{fill:#138C3D;}
</style>
<path class="st0" d="M9.94,36.63c-1.37-0.33-2.51-0.54-3.61-0.88c-3.89-1.17-6.15-4.01-6.26-8.06c-0.09-3.21-0.1-6.43,0.05-9.64
	c0.22-4.61,2.36-6.99,6.89-7.85c1.82-0.35,3.19-1,4.21-2.78c2.81-4.92,7.43-7.06,12.9-7.34c3.65-0.19,7.32-0.04,10.98-0.04
	C65.3,0.03,95.48,0,125.67,0.02c2.39,0,4.82,0.18,7.17,0.61c3.57,0.65,6.48,2.59,8.46,5.64c1.23,1.89,2.85,3.15,4.82,4.08
	c1.13,0.53,2.24,1.12,3.39,1.6c2.68,1.12,4.11,3.19,4.13,6.01c0.03,4.19-0.04,8.39-0.34,12.57c-0.18,2.59-1.44,3.71-4.04,4.22
	c-3.22,0.63-5.24,2.55-6.2,5.61c-0.64,2.04-1.09,4.14-1.72,6.18c-1.72,5.61-4.25,10.79-8.45,15.01c-5.48,5.51-12.2,8.11-19.89,8.62
	c-9.71,0.64-17.35-3.28-23.5-10.46c-1.97-2.3-3.55-4.92-5.38-7.33c-1.4-1.84-2.77-3.74-4.41-5.36c-2.13-2.1-3.96-2.16-6.09-0.03
	c-2.07,2.07-3.87,4.43-5.58,6.82c-2.87,4.02-6.03,7.74-9.97,10.76c-4.82,3.71-10.27,5.84-16.34,5.8c-7.81-0.05-14.64-2.85-20.3-8.29
	c-5.87-5.64-9.19-12.63-10.66-20.57C10.48,39.94,10.23,38.37,9.94,36.63z M65.32,6.89c0-0.02,0-0.03,0-0.05
	c-12.95,0-25.9-0.07-38.85,0.03c-7.33,0.06-9.44,2.37-9.56,9.17c-0.1,5.62-0.38,11.25-0.33,16.87c0.05,5.74,0.88,11.35,3.42,16.63
	c7.56,15.72,27.96,17.66,38.52,5.72c1.95-2.2,3.59-4.67,5.46-6.94c1.93-2.33,3.75-4.81,6-6.8c4.46-3.95,9.25-3.94,13.74,0.01
	c2.26,1.99,4.15,4.41,6.09,6.73c1.02,1.23,1.77,2.68,2.67,4.01c6.42,9.58,15.85,12.56,26.93,9.61c8.68-2.31,13.34-8.67,15.13-17.1
	c2.25-10.55,1.88-21.31,1.64-32.02c-0.07-3.24-1.77-4.82-4.97-5.32c-0.7-0.11-1.43-0.1-2.14-0.11c-9.02-0.15-18.03-0.38-27.05-0.43
	C89.8,6.84,77.56,6.89,65.32,6.89z"/>
<path class="st0" d="M91.99,120.11c0.44-1.23,0.7-2.07,1.03-2.88c3.86-9.39,7.74-18.78,11.61-28.17c0.2-0.49,0.41-0.99,0.67-1.46
	c1.64-2.97,3.83-3.68,6.94-2.33c2.12,0.92,4.29,1.73,6.41,2.65c3.68,1.6,4.69,3.64,3.58,7.44c-2.65,9.1-6.59,17.69-10.62,26.23
	c-1.18,2.49-4.72,3.91-7.81,3.35C99.62,124.2,96.07,121.94,91.99,120.11z"/>
<path class="st0" d="M61.99,119.91c-3.64,1.91-7.07,3.99-11.05,4.74c-3.4,0.64-7.69-1.5-9.08-4.72c-3.35-7.76-6.62-15.56-9.75-23.42
	c-1.63-4.11-0.45-6.55,3.58-8.41c2.1-0.97,4.22-1.9,6.34-2.81c2.89-1.25,4.96-0.59,6.58,2.11c0.46,0.76,0.81,1.58,1.15,2.41
	c3.76,9.14,7.51,18.29,11.25,27.44C61.34,118.05,61.61,118.88,61.99,119.91z"/>
<path class="st0" d="M109.23,77.29c-1.28-0.87-4.79-3.11-9.87-5.21c-8.1-3.35-13.88-6.7-15.04-10.05
	c-1.16-3.35-2.18-10.94-5.82-11.17c-0.58-0.04-1.65-0.04-2.23,0c-3.64,0.23-4.67,7.82-5.82,11.17c-1.16,3.35-6.94,6.7-15.04,10.05
	c-6.02,2.49-9.86,5.18-10.35,5.54c2.27,2.82,4.18,5.31,6.22,7.67c2.81,3.25,4.86,6.83,5.47,11.13c0.19,1.32,0.26,2.67,0.51,3.97
	c0.83,4.36,3.1,8.15,4.91,12.12c1.03,2.26,1.99,4.59,2.6,6.99c0.49,1.93,1.46,3.28,3.17,4.02c6.04,2.64,12.11,2.68,18.13-0.08
	c1.63-0.75,2.76-2.04,3.08-3.82c0.61-3.4,2.27-6.37,3.77-9.4c1.91-3.85,3.74-7.73,4.18-12.08c0.57-5.58,3.08-10.13,6.92-14.15
	c1.93-2.02,3.47-4.42,5.33-6.85C109.3,77.2,109.27,77.24,109.23,77.29z M86.13,84.48c-1.5,2.5-3.18,4.87-5.51,6.69
	c-2.21,1.72-4.54,1.7-6.88,0.08c-1.79-1.24-4.03-3.78-5.59-6.34C71.84,80.29,81.15,80.34,86.13,84.48z M63.72,107.12
	c-4.87-4.02-4.22-13.86-0.43-18.15c2.73,1.76,5.41,3.6,7.24,6.44c1.3,2.01,0.86,3.93-0.42,5.74
	C68.39,103.59,66.12,105.44,63.72,107.12z M68.19,111.27c1.57-2.69,3.38-5.17,5.98-7c1.85-1.3,3.69-1.08,5.49,0.11
	c2.48,1.64,4.47,3.77,6.24,6.33C80.88,115.89,74.54,115.89,68.19,111.27z M90.46,107.43c-2.14-1.87-4.29-3.47-6.11-5.38
	c-2.2-2.3-2.16-4.9-0.27-7.52c1.23-1.71,3.82-3.97,6.19-5.4C94.8,93.22,94.79,101.57,90.46,107.43z"/>
</svg>
