<?xml version="1.0" encoding="utf-8"?>
<!-- Generator: Adobe Illustrator 23.0.0, SVG Export Plug-In . SVG Version: 6.00 Build 0)  -->
<svg version="1.1" id="Capa_1" xmlns="http://www.w3.org/2000/svg" xmlns:xlink="http://www.w3.org/1999/xlink" x="0px" y="0px"
	 viewBox="0 0 153.64 153.64" style="enable-background:new 0 0 153.64 153.64;" xml:space="preserve">
<style type="text/css">
	.st0{fill:#138C3D;}
</style>
<g>
	<path class="st0" d="M66.03,33.37c-1.24,0.11-2.21,0.27-3.19,0.28c-5.87,0.02-11.74,0.03-17.61,0c-3.14-0.02-3.52-0.57-2.72-3.65
		c1.33-5.15,6.24-8.86,11.7-8.84c5.39,0.02,10.43,3.87,11.62,8.96C66.04,31.08,65.96,32.09,66.03,33.37z"/>
	<path class="st0" d="M88.79,133.73c-2.57,1-4.57,2.95-7.7,2.04c-0.06-0.97-0.17-2.04-0.18-3.11c-0.02-4.96-0.01-9.93-0.01-14.89
		c0-0.61,0.01-1.22-0.01-1.82c-0.04-0.8,0.03-1.84-1.15-1.66c-0.4,0.06-0.89,1-0.93,1.57c-0.12,1.92-0.06,3.85-0.06,5.77
		c0,3.65,0.02,7.29-0.01,10.94c-0.01,1.07-0.15,2.15-0.23,3.19c-3.3,0.88-5.5-1.06-8.1-2.29c-0.84,0.89-1.66,1.77-2.48,2.64
		c-0.56,0.59-1.08,1.2-1.68,1.75c-0.85,0.78-1.85,0.9-2.75,0.15c-0.95-0.79-0.85-1.81-0.14-2.7c1.01-1.27,2.01-2.55,3.17-3.68
		c1.09-1.06,1.29-2.16,0.88-3.56c-0.37-1.25-0.58-2.54-0.93-4.13c-1.03-0.08-2.1-0.14-3.16-0.26c-0.8-0.09-1.71-0.04-2.35-0.42
		c-0.58-0.35-1.23-1.24-1.16-1.82c0.07-0.59,0.92-1.45,1.52-1.53c1.58-0.22,3.2-0.07,5.12-0.07c0.38-3.45,1.3-6.61-1.9-9.07
		c-0.71-0.55-1.29-1.28-1.89-1.97c-0.75-0.88-0.89-1.83,0-2.7c0.89-0.87,1.88-0.69,2.74,0.01c0.86,0.71,1.67,1.49,2.39,2.33
		c1.07,1.25,2.34,1.72,4,1.69c5.27-0.08,10.54-0.09,15.8,0c1.76,0.03,3.13-0.45,4.27-1.79c0.65-0.77,1.41-1.45,2.17-2.13
		c0.95-0.86,1.98-1.03,2.96-0.05c0.9,0.91,0.61,1.85-0.1,2.71c-0.38,0.47-0.77,0.97-1.25,1.32c-2.39,1.71-3.19,4.03-2.78,6.87
		c0.1,0.69,0.1,1.4,0.16,2.43c0.89,0.09,1.74,0.21,2.6,0.26c0.81,0.05,1.71-0.18,2.41,0.1c0.73,0.3,1.72,1.06,1.74,1.65
		c0.03,0.63-0.82,1.59-1.51,1.89c-0.88,0.38-1.98,0.22-2.99,0.31c-0.69,0.07-1.37,0.18-2.14,0.28c-0.2,0.99-0.19,1.97-0.59,2.73
		c-1.52,2.91-0.37,4.93,1.92,6.72c0.63,0.49,1.16,1.13,1.67,1.76c0.71,0.89,0.85,1.9-0.02,2.74c-0.86,0.83-1.89,0.71-2.75-0.02
		c-1.07-0.92-2.05-1.96-3.08-2.93C89.82,134.57,89.34,134.2,88.79,133.73z"/>
	<path class="st0" d="M111.23,65.57c-0.07-6,4.24-10.16,9.64-9.99c5.38,0.17,9.48,4.49,8.99,9.9
		C123.72,65.88,117.55,65.73,111.23,65.57z"/>
	<path class="st0" d="M87.83,107.12c-2.48,0.91-13,1.02-16.05,0.16c-0.56-3.07,1.06-5.18,3.38-6.77c2.82-1.94,5.88-2.01,8.83-0.24
		C86.55,101.81,88.14,103.98,87.83,107.12z"/>
	<path class="st0" d="M76.82,0.31c-42.26,0-76.51,34.26-76.51,76.51s34.25,76.51,76.51,76.51s76.51-34.26,76.51-76.51
		S119.08,0.31,76.82,0.31z M11.42,63c6.18-26.45,22.72-43.76,48.93-51.03c22.37-6.2,45.91,1.09,58.85,13.25
		c-14.82,14.96-29.64,29.91-44.65,45.06c-1.36-1.22-2.46-2.2-3.43-3.06c0.87-3.5,1.67-6.72,2.57-10.36c1.48,0,3.07,0.02,4.66-0.01
		c1.01-0.02,2.05,0.03,3.02-0.18c1.44-0.32,2.39-1.65,2.15-2.88c-0.26-1.35-1.11-2.15-2.51-2.21c-1.32-0.06-2.64-0.03-3.96-0.04
		c-1.09-0.01-2.18,0-3.56,0c-0.45-3.5-0.34-6.72-0.09-9.91c0.05-0.68,0.82-1.35,1.36-1.92c1.39-1.48,2.9-2.84,4.25-4.35
		c1.31-1.46,1.31-2.98,0.19-4.06c-1.18-1.14-2.48-1.11-4.04,0.29c-1.58,1.42-3.08,2.95-4.55,4.48c-0.98,1.01-2.08,1.48-3.51,1.47
		c-8.62-0.03-17.25-0.04-25.87,0.01c-1.55,0.01-2.71-0.5-3.74-1.63c-1.09-1.2-2.28-2.31-3.44-3.45c-0.51-0.49-1.01-1.02-1.6-1.39
		c-1.31-0.84-2.68-0.68-3.57,0.4c-0.89,1.07-0.93,2.25-0.09,3.35c0.61,0.8,1.28,1.62,2.09,2.2c3.66,2.64,4.96,6.18,4.28,10.56
		c-0.11,0.69-0.04,1.42-0.02,2.13c0.03,1.27-0.59,1.85-1.85,1.83c-1.83-0.02-3.65-0.04-5.48,0.02c-1.93,0.07-2.88,0.84-3.01,2.3
		c-0.14,1.57,0.9,2.81,2.8,2.92c2.31,0.14,4.64,0.03,7.01,0.03c0.78,3.23,1.51,5.95,2.04,8.71c0.12,0.64-0.31,1.56-0.76,2.12
		c-1.47,1.81-3.07,3.51-4.62,5.26c-0.47,0.53-0.97,1.05-1.34,1.65c-0.85,1.37-0.7,2.65,0.35,3.58c0.98,0.88,2.47,0.95,3.6-0.04
		c1.06-0.93,1.97-2.04,2.92-3.09c1.15-1.27,2.28-2.55,3.51-3.93c3.68,2.04,7.01,4.8,11.76,3.93c0.08-1.34,0.23-2.63,0.23-3.93
		c0.02-7.81,0.01-15.62,0.01-23.44c0-0.71-0.02-1.42,0.01-2.13c0.12-2.6,0.32-2.74,3.55-2.18c0,10.43,0,20.93,0,31.49
		c4.69,1.32,7.8-1.62,11.45-3.22c0.52,0.39,1.1,0.77,1.61,1.23c0.44,0.4,0.79,0.9,1.45,1.67c-14.92,15.06-29.8,30.07-44.69,45.09
		C14.42,107.97,6.18,85.43,11.42,63z M140.81,98.02c-2.24-1.95-4.44-3.85-6.56-5.69c0.7-2.77,1.34-5.28,2.03-8.01
		c2.36,0,4.65,0,7.27,0C143.65,89.14,142.09,93.74,140.81,98.02z M136.01,79.32c0-2.37-0.09-4.67,0.06-6.96
		c0.05-0.7,0.68-1.43,1.19-2.01c1.07-1.21,2.3-2.29,3.36-3.51c0.79-0.91,1.07-1.97,0.11-3c-0.85-0.92-2.11-1.03-3.27-0.07
		c-1.24,1.03-2.39,2.19-3.49,3.38c-0.96,1.03-2.02,1.5-3.46,1.49c-6.59-0.06-13.18-0.06-19.77,0c-1.43,0.01-2.53-0.39-3.49-1.44
		c-1.03-1.12-2.1-2.2-3.24-3.21c-1.28-1.13-2.6-1.15-3.5-0.17c-1.06,1.16-0.62,2.25,0.27,3.24c0.88,0.98,1.78,1.96,2.78,2.81
		c1.37,1.15,1.87,2.53,1.75,4.28c-0.11,1.69-0.02,3.39-0.02,5.51c-2.2,0-4-0.05-5.79,0.02c-1.09,0.04-1.98,0.54-2.22,1.71
		c-0.23,1.13,0.15,2.06,1.26,2.45c0.74,0.26,1.57,0.35,2.37,0.38c1.3,0.06,2.6,0.02,4.03,0.02c0.56,2.29,1.18,4.32,1.5,6.39
		c0.12,0.74-0.32,1.73-0.8,2.38c-0.96,1.3-2.13,2.44-3.19,3.67c-0.46,0.53-0.96,1.08-1.26,1.7c-0.49,0.99-0.4,1.99,0.52,2.75
		c0.92,0.76,1.94,0.73,2.77-0.02c0.98-0.87,1.81-1.91,2.7-2.88c0.76-0.81,1.52-1.62,2.38-2.54c2.99,1.18,5.55,3.59,9.36,2.99
		c0.07-1.12,0.18-2.2,0.18-3.28c0.02-6.39-0.01-12.78,0.03-19.17c0.01-1.11-0.49-2.83,1.27-2.89c2.04-0.08,1.53,1.79,1.54,2.98
		c0.06,5.88,0.01,11.76,0.04,17.65c0.01,1.5,0.17,3,0.25,4.44c2.24,0.44,2.24,0.44,8.98-2.38c2.87,1.61,4.17,5.32,8.23,5.99
		c-9.04,20.55-23.95,34.29-45.63,39.92c-21.54,5.6-41.12,0.87-59.14-12.81l-2.44-1.78l94.48-94.48c0,0,1.59,1.54,1.61,1.53
		c8.94,8.27,17.31,28.79,15.72,45.7C141.48,79.84,138.93,79.59,136.01,79.32z"/>
</g>
</svg>
