<?xml version="1.0" encoding="utf-8"?>
<!-- Generator: Adobe Illustrator 23.0.0, SVG Export Plug-In . SVG Version: 6.00 Build 0)  -->
<svg version="1.1" id="Capa_1" xmlns="http://www.w3.org/2000/svg" xmlns:xlink="http://www.w3.org/1999/xlink" x="0px" y="0px"
	 viewBox="0 0 149 145" style="enable-background:new 0 0 149 145;" xml:space="preserve">
<style type="text/css">
	.st0{fill:#138C3D;}
</style>
<g>
	<path class="st0" d="M148.95,127.4c-0.09-0.27-0.17-0.54-0.26-0.81c-0.19-0.62-0.39-1.27-0.66-1.91
		c-6.56-15.03-18.02-23.98-34.04-26.61c-1-0.16-1.44-0.46-1.98-1.33c-5.41-8.82-12.93-14.94-22.34-18.19
		c-2.51-0.87-5.14-1.45-7.68-2.02c-0.88-0.2-1.75-0.39-2.63-0.6V62.39c0.6,0,1.2,0.01,1.79,0.01c2.23,0.01,4.34,0.03,6.49-0.03
		l1.01-0.03c2.54-0.06,5.18-0.13,7.76-0.49c18.35-2.59,33.65-18.28,35.61-36.49c0.49-4.6,0.47-9.3,0.46-13.85
		c-0.01-1.87-0.02-3.73,0.01-5.59c0.02-1.07-0.08-2.61-1.1-3.64c-1.02-1.04-2.57-1.16-3.65-1.16l-3.01-0.01
		c-3.52-0.02-7.15-0.03-10.73,0.02C99.72,1.35,88.14,7.25,79.57,18.66c-1.45,1.93-2.65,4.07-3.81,6.13
		c-0.19,0.34-0.38,0.68-0.58,1.03C69.08,13.39,59.25,5.45,45.97,2.22c-5.86-1.43-11.84-1.27-17.62-1.13
		c-2.21,0.06-4.5,0.11-6.74,0.08c-0.99,0-1.86,0.33-2.52,0.99C18.35,2.91,17.95,4,17.97,5.23c0.03,2.01,0.01,4.06-0.02,6.05
		c-0.06,4.75-0.12,9.65,0.57,14.42c2.26,15.72,11.1,27.01,26.25,33.56c5.12,2.21,10.68,3.23,16.99,3.13
		c2.38-0.04,4.77-0.03,7.17-0.02c0.71,0,1.43,0.01,2.15,0.01v13.76c-14.5,1.8-25.64,8.96-33.11,21.27c-0.06,0.1-0.44,0.37-1.06,0.54
		c-1.19,0.33-2.43,0.61-3.63,0.89c-2.31,0.53-4.7,1.07-6.95,1.99C14.06,105.85,5.7,114.8,1.5,127.4l-0.06,0.18v4.62l0.05,0.33
		c1.14,3.75,2.89,7.85,7.15,9.91c2.92,1.41,5.59,2.12,7.92,2.13c22.39,0.07,45.03,0.08,67.41,0.08c10.38,0,20.71,0,30.92-0.01
		l19.04-0.01c7.3,0,12.93-4.41,14.67-11.45c0.02-0.05,0.06-0.1,0.09-0.15c0.06-0.09,0.12-0.18,0.17-0.27l0.15-0.27v-4.93
		L148.95,127.4z M46.86,51.36c-13.15-6.24-20.17-16.87-20.87-31.61c-0.12-2.61-0.09-5.18-0.06-7.91c0.01-0.88,0.02-1.77,0.03-2.65
		c10.31-0.31,20.05-0.46,28.78,5.28c9.53,6.27,14.95,14.91,16.1,25.68c0.25,2.35,0.19,4.75,0.12,7.29
		c-0.01,0.33-0.02,0.66-0.03,0.99l-3.73-3.74c-4.34-4.35-8.64-8.67-12.94-12.99l-1.28-1.28c-3.66-3.66-7.31-7.33-11-10.97
		c-1.93-1.91-4.37-2.06-6.06-0.38c-1.67,1.67-1.56,3.98,0.3,6.04c0.2,0.22,0.41,0.43,0.62,0.63l5.43,5.42
		c7.66,7.66,15.33,15.33,23.01,22.98C59.51,54.55,53.05,54.29,46.86,51.36z M113.7,25.63l0.25-0.24c0.27-0.26,0.57-0.55,0.84-0.91
		c1.41-1.9,1.26-3.96-0.38-5.5c-1.6-1.5-3.72-1.51-5.38-0.02c-1.28,1.15-2.5,2.38-3.67,3.58c-0.42,0.43-0.84,0.85-1.26,1.27
		L79.24,48.67C77.98,28.59,89.82,12.73,108.66,9.7c3.68-0.59,7.43-0.63,11.39-0.68c1.44-0.02,2.91-0.03,4.39-0.08
		c0.01,0.92,0.02,1.83,0.04,2.74c0.12,7.87,0.23,15.3-3.17,22.2c-6.03,12.24-15.85,19.07-29.16,20.29
		c-2.06,0.19-4.16,0.14-6.38,0.09c-0.22-0.01-0.44-0.01-0.67-0.02L113.7,25.63z M102.31,98.05c-1.76,0.32-3.43,0.63-5.11,0.99
		c-1.72,0.38-2.92,1.09-3.57,2.13c-0.51,0.82-0.65,1.82-0.39,2.88c0.37,1.48,1.62,3.82,5.9,2.79c10.43-2.5,20.08-0.8,28.7,5.05
		c5.52,3.75,9.67,8.8,12.34,15.02c0.95,2.21,0.91,4.41-0.1,6.21c-1.02,1.81-2.91,3-5.32,3.35c-0.73,0.1-1.48,0.16-2.25,0.16
		c-38.32,0.01-76.63,0.01-114.95,0.01c-4.67,0-7.62-2.21-7.9-5.9c-0.1-1.27,0.1-2.6,0.53-3.55c5.77-12.71,15.67-19.88,29.44-21.3
		c2.16-0.22,3.61-1.16,4.57-2.94c5.8-10.77,14.63-16.88,27-18.67c1.31-0.19,2.65-0.28,4-0.28c10.55,0,21.9,5.61,27.77,13.93
		C102.76,97.97,102.53,98.01,102.31,98.05z"/>
	<path class="st0" d="M87.05,103.82c-2.44-0.01-5.26,2.48-5.34,4.76c-0.07,2.24,1.57,4.06,3.73,4.15c0.05,0,0.1,0,0.15,0
		c1.25,0,2.64-0.63,3.76-1.7c1.02-0.97,1.6-2.14,1.6-3.21C90.95,105.64,89.2,103.84,87.05,103.82z"/>
</g>
</svg>
