<?xml version="1.0" encoding="utf-8"?>
<!-- Generator: Adobe Illustrator 23.0.0, SVG Export Plug-In . SVG Version: 6.00 Build 0)  -->
<svg version="1.1" id="Capa_1" xmlns="http://www.w3.org/2000/svg" xmlns:xlink="http://www.w3.org/1999/xlink" x="0px" y="0px"
	 viewBox="0 0 154 153" style="enable-background:new 0 0 154 153;" xml:space="preserve">
<style type="text/css">
	.st0{fill:#FFFFFF;}
</style>
<path class="st0" d="M2,153l10.75-39.29C6.12,102.21,2.64,89.17,2.64,75.81C2.66,34.01,36.67,0,78.46,0
	c20.28,0.01,39.31,7.91,53.63,22.24c14.31,14.33,22.19,33.38,22.18,53.64c-0.02,41.8-34.03,75.81-75.82,75.81
	c-12.69-0.01-25.19-3.19-36.26-9.23L2,153z M44.06,128.73c10.68,6.34,20.88,10.14,34.37,10.15c34.73,0,63.02-28.27,63.04-63.02
	c0.01-34.82-28.15-63.05-62.99-63.06c-34.76,0-63.03,28.27-63.04,63.01c-0.01,14.18,4.15,24.81,11.13,35.92l-6.37,23.26
	C20.21,134.98,44.06,128.73,44.06,128.73z M116.65,93.9c-0.47-0.79-1.73-1.26-3.63-2.21c-1.89-0.95-11.21-5.53-12.95-6.16
	c-1.73-0.63-3-0.95-4.26,0.95c-1.26,1.89-4.9,6.16-6,7.43c-1.1,1.26-2.21,1.42-4.11,0.47s-8-2.95-15.24-9.4
	c-5.63-5.02-9.44-11.23-10.54-13.13c-1.1-1.89-0.11-2.92,0.83-3.86c0.85-0.85,1.89-2.21,2.84-3.32c0.96-1.1,1.28-1.89,1.91-3.16
	c0.63-1.26,0.32-2.37-0.16-3.32c-0.48-0.94-4.26-10.27-5.84-14.06c-1.54-3.69-3.1-3.19-4.26-3.25l-3.63-0.06
	c-1.26,0-3.31,0.47-5.05,2.37c-1.73,1.9-6.63,6.48-6.63,15.8s6.79,18.33,7.73,19.6c0.95,1.26,13.36,20.4,32.36,28.6
	c4.52,1.95,8.05,3.12,10.8,3.99c4.54,1.44,8.67,1.24,11.93,0.75c3.64-0.54,11.21-4.58,12.79-9.01
	C117.13,98.48,117.13,94.69,116.65,93.9z"/>
</svg>
